PathFileType	4	(X/Y/Z)	/Users/itak/Documents/Research/Walk-IL/dataset/trc/00445_00167.trc
DataRate	CameraRate	NumFrames	NumMarkers	Units	OrigDataRate	OrigDataStartFrame	OrigNumFrames
100.000000	100.000000	4	54	mm	100.000000	62	501
Frame#	Time	RPSI			L3			STRN			T10			C7			CLAV			RBAK			LBAK			LSHO			LUPA			LAEL			LAOL			LWTS			LWPS			LFRA			LIFD			LHPS			LHTS			RSHO			RUPA			RAEL			RAOL			RWTS			RWPS			RFRA			RIFD			RHTS			RHPS			RBHD			LFHD			RFHD			LBHD			LHIP			RHIP			RASI			LASI			LKNE			LTHI			LANK			LTIP			LTOE			LMT1			LMT5			LHEE			RKNE			RTHI			RANK			RTIP			RTOE			RMT1			RMT5			RHEE			LPSI			*53			
		X1	Y1	Z1	X2	Y2	Z2	X3	Y3	Z3	X4	Y4	Z4	X5	Y5	Z5	X6	Y6	Z6	X7	Y7	Z7	X8	Y8	Z8	X9	Y9	Z9	X10	Y10	Z10	X11	Y11	Z11	X12	Y12	Z12	X13	Y13	Z13	X14	Y14	Z14	X15	Y15	Z15	X16	Y16	Z16	X17	Y17	Z17	X18	Y18	Z18	X19	Y19	Z19	X20	Y20	Z20	X21	Y21	Z21	X22	Y22	Z22	X23	Y23	Z23	X24	Y24	Z24	X25	Y25	Z25	X26	Y26	Z26	X27	Y27	Z27	X28	Y28	Z28	X29	Y29	Z29	X30	Y30	Z30	X31	Y31	Z31	X32	Y32	Z32	X33	Y33	Z33	X34	Y34	Z34	X35	Y35	Z35	X36	Y36	Z36	X37	Y37	Z37	X38	Y38	Z38	X39	Y39	Z39	X40	Y40	Z40	X41	Y41	Z41	X42	Y42	Z42	X43	Y43	Z43	X44	Y44	Z44	X45	Y45	Z45	X46	Y46	Z46	X47	Y47	Z47	X48	Y48	Z48	X49	Y49	Z49	X50	Y50	Z50	X51	Y51	Z51	X52	Y52	Z52	X53	Y53	Z53	X54	Y54	Z54	

63	0.62	-1686.096801757812	967.8334350585938	-695.3619995117188	-1640.800048828125	1060.139770507812	-732.2679443359375	-1427.049194335938	1259.62255859375	-577.7883911132812	-1657.874877929688	1183.956176757812	-749.8408813476562	-1618.624267578125	1449.572021484375	-695.8653564453125	-1457.50927734375	1372.916381835938	-603.4688110351562	-1722.874267578125	1329.013061523438	-655.0682983398438	-1582.581420898438	1404.48974609375	-797.7788696289062	-1450.05908203125	1430.165649414062	-801.2904052734375	-1384.343627929688	1311.9306640625	-879.0502319335938	-1331.384155273438	1093.610961914062	-869.2763671875	-1432.456787109375	1075.704467773438	-883.9713134765625	-1310.291870117188	896.4226684570312	-768.28125	-1294.140747070312	877.3950805664062	-839.0877075195312	-1306.3447265625	1007.333557128906	-854.4129028320312	-1292.575073242188	728.5204467773438	-760.5076904296875	-1289.99658203125	796.519287109375	-829.9324340820312	-1291.212158203125	807.1842651367188	-759.5076904296875	-1653.2041015625	1416.965576171875	-522.649658203125	-1705.722778320312	1353.038818359375	-469.1655883789062	-1705.324096679688	1064.289306640625	-412.2383117675781	-1740.0947265625	1046.6142578125	-467.4939880371094	-1584.9208984375	868.1846923828125	-424.34765625	-1666.395141601562	847.4298095703125	-394.9051208496094	-1702.057861328125	1005.673767089844	-402.7775573730469	-1575.14306640625	711.4199829101562	-408.8533020019531	-1569.464965820312	770.5668334960938	-406.6753540039062	-1643.926879882812	762.1554565429688	-390.6385498046875	-1605.671020507812	1646.267944335938	-580.0709228515625	-1408.92236328125	1670.831176757812	-643.0054321289062	-1478.6103515625	1672.894409179688	-531.531005859375	-1525.676147460938	1645.509643554688	-738.8805541992188	-1414.544799804688	866.632568359375	-801.44384765625	-1689.220458984375	863.1328125	-518.822998046875	-1570.606689453125	905.200439453125	-491.5966491699219	-1389.705932617188	904.2545166015625	-677.1678466796875	-1441.9072265625	444.5452880859375	-769.3623657226562	-1400.770874023438	596.8955688476562	-768.874755859375	-1518.92041015625	35.51982116699219	-828.8478393554688	-1450.400634765625	294.3734436035156	-790.5745239257812	-1390.06591796875	45.72839736938477	-630.326904296875	-1466.109985351562	50.63202285766602	-653.1069946289062	-1395.125732421875	47.32629013061523	-742.73681640625	-1595.420166015625	37.36063003540039	-823.5440063476562	-1659.254150390625	468.7266540527344	-537.9918212890625	-1662.604858398438	728.5849609375	-484.9058837890625	-1706.872192382812	45.61635208129883	-585.8283081054688	-1674.178955078125	325.0960388183594	-535.910400390625	-1507.861206054688	49.28461837768555	-492.6805725097656	-1536.365234375	53.73246002197266	-560.7877197265625	-1615.305297851562	49.5117301940918	-485.3545837402344	-1732.161010742188	36.66088485717773	-662.7932739257812	-1593.8525390625	966.3028564453125	-800.679931640625	nan	nan	nan	
64	0.63	-1686.121826171875	967.8418579101562	-695.3987426757812	-1640.836059570312	1060.106811523438	-732.318359375	-1427.114379882812	1259.615356445312	-577.8353271484375	-1657.887939453125	1183.945434570312	-749.8790283203125	-1618.662719726562	1449.564086914062	-695.8958129882812	-1457.60693359375	1372.899780273438	-603.48779296875	-1722.900634765625	1328.974365234375	-655.1246948242188	-1582.637939453125	1404.479248046875	-797.8147583007812	-1450.101440429688	1430.159790039062	-801.3184814453125	-1384.383666992188	1311.935546875	-879.0664672851562	-1331.3984375	1093.609985351562	-869.33203125	-1432.567138671875	1075.684448242188	-884.0706787109375	-1310.344116210938	896.3873291015625	-768.3782958984375	-1294.195678710938	877.3759155273438	-839.2662353515625	-1306.37353515625	1007.351013183594	-854.4702758789062	-1292.53857421875	728.4859619140625	-760.7744750976562	-1289.94775390625	796.5450439453125	-830.1034545898438	-1291.25634765625	807.1744995117188	-759.6458129882812	-1653.330810546875	1416.9365234375	-522.7320556640625	-1705.787841796875	1353.009521484375	-469.2275695800781	-1705.473510742188	1064.255493164062	-412.355712890625	-1740.208374023438	1046.564819335938	-467.6099548339844	-1585.0791015625	868.0734252929688	-424.4634704589844	-1666.554077148438	847.3343505859375	-395.0450744628906	-1702.233520507812	1005.658813476562	-402.9099731445312	-1575.380615234375	711.3160400390625	-408.9925842285156	-1569.683715820312	770.489501953125	-406.7435607910156	-1644.114135742188	762.1820068359375	-390.7460021972656	-1605.660522460938	1646.266967773438	-580.0418701171875	-1408.960571289062	1670.775268554688	-642.9122924804688	-1478.605834960938	1672.815673828125	-531.4983520507812	-1525.6103515625	1645.536865234375	-738.8523559570312	-1414.5732421875	866.63720703125	-801.4588623046875	-1689.209838867188	863.0744018554688	-518.8106689453125	-1570.653198242188	905.2002563476562	-491.63037109375	-1389.765502929688	904.2560424804688	-677.203857421875	-1441.936401367188	444.5426025390625	-769.37109375	-1400.783813476562	596.8988647460938	-768.884521484375	-1518.937377929688	35.52668762207031	-828.8492431640625	-1450.396850585938	294.3765258789062	-790.5775756835938	-1390.064086914062	45.73074340820312	-630.3308715820312	-1466.1142578125	50.63143920898438	-653.108642578125	-1395.126831054688	47.32718658447266	-742.7382202148438	-1595.458251953125	37.40695190429688	-823.5692138671875	-1659.26416015625	468.7314453125	-537.9996948242188	-1662.627563476562	728.5756225585938	-484.9425659179688	-1706.871337890625	45.6154899597168	-585.8292846679688	-1674.210571289062	325.0939025878906	-535.9351806640625	-1507.862915039062	49.28421020507812	-492.6816711425781	-1536.366577148438	53.7284049987793	-560.79248046875	-1615.303100585938	49.51435089111328	-485.3518676757812	-1732.157470703125	36.63541793823242	-662.8013916015625	-1593.991821289062	966.3922119140625	-800.7509765625	nan	nan	nan	
65	0.64	-1686.1376953125	967.84033203125	-695.4345703125	-1640.899047851562	1060.09716796875	-732.3800659179688	-1427.182983398438	1259.610229492188	-577.8867797851562	-1657.859497070312	1183.893188476562	-749.8989868164062	-1618.706420898438	1449.548706054688	-695.9285888671875	-1457.70458984375	1372.884643554688	-603.5099487304688	-1722.920654296875	1328.919677734375	-655.1815795898438	-1582.706420898438	1404.460571289062	-797.85791015625	-1450.15673828125	1430.156372070312	-801.3501586914062	-1384.445922851562	1311.94189453125	-879.0947265625	-1331.408203125	1093.613525390625	-869.3964233398438	-1432.669067382812	1075.67041015625	-884.1580810546875	-1310.394165039062	896.3492431640625	-768.4684448242188	-1294.249877929688	877.3591918945312	-839.4385986328125	-1306.409545898438	1007.367492675781	-854.5315551757812	-1292.497924804688	728.4358520507812	-761.0489501953125	-1289.86181640625	796.5926513671875	-830.231201171875	-1291.305786132812	807.1658325195312	-759.7925415039062	-1653.451293945312	1416.908325195312	-522.8065185546875	-1705.848754882812	1352.960693359375	-469.2896728515625	-1705.60888671875	1064.212768554688	-412.4664916992188	-1740.312744140625	1046.514404296875	-467.7236633300781	-1585.221313476562	867.9725341796875	-424.5708923339844	-1666.693725585938	847.2432861328125	-395.1714782714844	-1702.402099609375	1005.637329101562	-403.0315551757812	-1575.602661132812	711.2132568359375	-409.123046875	-1569.884887695312	770.42138671875	-406.8077087402344	-1644.315185546875	762.208251953125	-390.8511352539062	-1605.653198242188	1646.270263671875	-580.0112915039062	-1408.925659179688	1670.718383789062	-642.8214721679688	-1478.600219726562	1672.738891601562	-531.4685668945312	-1525.557373046875	1645.567016601562	-738.8224487304688	-1414.581909179688	866.6254272460938	-801.4639892578125	-1689.197998046875	863.0242309570312	-518.809814453125	-1570.675537109375	905.20654296875	-491.6583251953125	-1389.821533203125	904.2567138671875	-677.2364501953125	-1441.970825195312	444.5430908203125	-769.380859375	-1400.799926757812	596.9009399414062	-768.897705078125	-1518.960205078125	35.53399276733398	-828.8517456054688	-1450.38818359375	294.3823547363281	-790.5769653320312	-1390.060791015625	45.73238754272461	-630.3369750976562	-1466.119262695312	50.63215637207031	-653.110595703125	-1395.127563476562	47.32781982421875	-742.7396240234375	-1595.493774414062	37.45029067993164	-823.5929565429688	-1659.270141601562	468.73291015625	-538.0032348632812	-1662.636352539062	728.5592651367188	-484.9725952148438	-1706.870361328125	45.61428833007812	-585.8303833007812	-1674.242065429688	325.0885009765625	-535.9617919921875	-1507.862670898438	49.2846794128418	-492.6822204589844	-1536.367065429688	53.72461318969727	-560.7965698242188	-1615.300415039062	49.51638793945312	-485.3506469726562	-1732.154541015625	36.60890960693359	-662.8086547851562	-1594.12255859375	966.4759521484375	-800.818603515625	nan	nan	nan	
66	0.65	-1686.144165039062	967.8278198242188	-695.4698486328125	-1640.9814453125	1060.104370117188	-732.4495849609375	-1427.255615234375	1259.606689453125	-577.9403686523438	-1657.773193359375	1183.785522460938	-749.8930053710938	-1618.755493164062	1449.525268554688	-695.9642333984375	-1457.798706054688	1372.871704101562	-603.534423828125	-1722.9365234375	1328.851806640625	-655.2382202148438	-1582.783081054688	1404.436157226562	-797.9097290039062	-1450.22705078125	1430.155151367188	-801.3853149414062	-1384.529541015625	1311.948120117188	-879.1327514648438	-1331.4130859375	1093.621948242188	-869.4690551757812	-1432.759155273438	1075.661987304688	-884.2325439453125	-1310.44189453125	896.309326171875	-768.5518798828125	-1294.304077148438	877.3440551757812	-839.6053466796875	-1306.453857421875	1007.382507324219	-854.598388671875	-1292.44775390625	728.378173828125	-761.3181762695312	-1289.737915039062	796.659423828125	-830.3153686523438	-1291.358520507812	807.1576538085938	-759.9461669921875	-1653.560668945312	1416.879028320312	-522.8716430664062	-1705.910400390625	1352.8935546875	-469.3546142578125	-1705.731567382812	1064.159912109375	-412.5727844238281	-1740.405029296875	1046.464111328125	-467.8343811035156	-1585.34814453125	867.8828125	-424.668212890625	-1666.8193359375	847.161865234375	-395.2847595214844	-1702.5634765625	1005.607971191406	-403.1452026367188	-1575.806640625	711.1136474609375	-409.2404479980469	-1570.067993164062	770.3598022460938	-406.8741760253906	-1644.542846679688	762.2325439453125	-390.9620361328125	-1605.648681640625	1646.2783203125	-579.978759765625	-1408.833984375	1670.661743164062	-642.736572265625	-1478.594360351562	1672.667602539062	-531.4420166015625	-1525.520751953125	1645.598266601562	-738.792724609375	-1414.574829101562	866.600830078125	-801.4617919921875	-1689.212036132812	863.00146484375	-518.8326416015625	-1570.675415039062	905.2184448242188	-491.6785888671875	-1389.8701171875	904.257080078125	-677.2638549804688	-1442.01318359375	444.5469970703125	-769.393310546875	-1400.818725585938	596.9019165039062	-768.9140014648438	-1518.9873046875	35.54063034057617	-828.8557739257812	-1450.377197265625	294.3894348144531	-790.57373046875	-1390.057373046875	45.73374176025391	-630.3458862304688	-1466.124755859375	50.63348388671875	-653.1130981445312	-1395.128662109375	47.32830047607422	-742.7407836914062	-1595.520874023438	37.48195648193359	-823.6121826171875	-1659.2724609375	468.7312316894531	-538.0037841796875	-1662.634765625	728.5357666015625	-484.9920654296875	-1706.869262695312	45.61300659179688	-585.8316040039062	-1674.27099609375	325.0803527832031	-535.9887084960938	-1507.860473632812	49.28628158569336	-492.6823120117188	-1536.367065429688	53.72114181518555	-560.7999877929688	-1615.29736328125	49.51728057861328	-485.3508605957031	-1732.151245117188	36.58254623413086	-662.8146362304688	-1594.238159179688	966.5499267578125	-800.8788452148438	nan	nan	nan	
